<svg width="290" height="90" viewBox="0 0 290 90" fill="none" xmlns="http://www.w3.org/2000/svg">
<path d="M22.1516 18.4426C19.2479 18.4426 16.8419 17.582 14.9337 15.8607C13.1085 14.0574 12.1958 11.8443 12.1958 9.22131C12.1958 6.59836 13.1085 4.42623 14.9337 2.70492C16.8419 0.901641 19.2479 0 22.1516 0C25.0554 0 27.4199 0.901641 29.2451 2.70492C31.1533 4.42623 32.1074 6.59836 32.1074 9.22131C32.1074 11.8443 31.1533 14.0574 29.2451 15.8607C27.4199 17.582 25.0554 18.4426 22.1516 18.4426ZM0 88.5246L10.8269 27.541H26.7562L15.9293 88.5246H0Z" fill="url(#paint0_linear_1110_40)"/>
<path d="M67.4336 88.5246C60.9624 88.5246 55.7771 86.9672 51.8777 83.8525C47.9784 80.7377 46.0287 75.2049 46.0287 67.2541V40.6967H35.4506V27.541H46.0287L47.8954 11.1885H61.9579V27.541H78.6339V40.6967H61.9579V67.377C61.9579 70.3279 62.5802 72.377 63.8246 73.5246C65.1521 74.5902 67.3921 75.123 70.5448 75.123H78.2605V88.5246H67.4336Z" fill="url(#paint1_linear_1110_40)"/>
<path d="M113.591 90C108.281 90 103.926 89.1803 100.524 87.541C97.1224 85.8197 94.592 83.5656 92.9327 80.7787C91.2734 77.9918 90.4437 74.918 90.4437 71.5574C90.4437 65.9016 92.6838 61.3115 97.1639 57.7869C101.644 54.2623 108.364 52.5 117.324 52.5H133.005V51.0246C133.005 46.8443 131.802 43.7705 129.396 41.8033C126.99 39.8361 124.003 38.8525 120.436 38.8525C117.2 38.8525 114.379 39.6311 111.973 41.1885C109.567 42.6639 108.074 44.8771 107.493 47.8279H91.9371C92.3519 43.4016 93.8453 39.5492 96.4172 36.2705C99.0721 32.9918 102.474 30.4918 106.622 28.7705C110.77 26.9672 115.416 26.0656 120.56 26.0656C129.354 26.0656 136.282 28.2377 141.343 32.582C146.404 36.9262 148.934 43.0738 148.934 51.0246V88.5246H135.369L133.876 78.6885C132.051 81.9672 129.479 84.6721 126.16 86.8033C122.925 88.9344 118.735 90 113.591 90ZM117.2 77.7049C121.763 77.7049 125.289 76.2295 127.778 73.2787C130.35 70.3279 131.968 66.6803 132.631 62.3361H119.067C114.835 62.3361 111.807 63.1148 109.982 64.6721C108.157 66.1475 107.244 67.9918 107.244 70.2049C107.244 72.582 108.157 74.4262 109.982 75.7377C111.807 77.0492 114.213 77.7049 117.2 77.7049Z" fill="url(#paint2_linear_1110_40)"/>
<path d="M164.135 88.5246V0H180.064V88.5246H164.135Z" fill="url(#paint3_linear_1110_40)"/>
<path d="M204.928 18.0738C202.024 18.0738 199.618 17.2131 197.71 15.4918C195.884 13.7705 194.972 11.5984 194.972 8.97541C194.972 6.35246 195.884 4.22131 197.71 2.58196C199.618 0.860653 202.024 0 204.928 0C207.831 0 210.196 0.860653 212.021 2.58196C213.929 4.22131 214.883 6.35246 214.883 8.97541C214.883 11.5984 213.929 13.7705 212.021 15.4918C210.196 17.2131 207.831 18.0738 204.928 18.0738ZM196.963 88.5246V27.541H212.892V88.5246H196.963Z" fill="url(#paint4_linear_1110_40)"/>
<path d="M259.759 90C253.454 90 247.895 88.6475 243.083 85.9426C238.271 83.2377 234.455 79.4672 231.634 74.6311C228.896 69.7951 227.527 64.2623 227.527 58.0328C227.527 51.8033 228.896 46.2705 231.634 41.4344C234.455 36.5984 238.271 32.8279 243.083 30.123C247.895 27.418 253.454 26.0656 259.759 26.0656C267.641 26.0656 274.278 28.1148 279.671 32.2131C285.064 36.2295 288.507 41.8033 290 48.9344H273.2C272.37 45.9836 270.711 43.6885 268.222 42.0492C265.816 40.3279 262.953 39.4672 259.635 39.4672C255.238 39.4672 251.504 41.1066 248.435 44.3852C245.365 47.6639 243.83 52.2131 243.83 58.0328C243.83 63.8525 245.365 68.4016 248.435 71.6803C251.504 74.959 255.238 76.5984 259.635 76.5984C262.953 76.5984 265.816 75.7787 268.222 74.1393C270.711 72.5 272.37 70.1639 273.2 67.1312H290C288.507 74.0164 285.064 79.5492 279.671 83.7295C274.278 87.9098 267.641 90 259.759 90Z" fill="url(#paint5_linear_1110_40)"/>
<defs>
<linearGradient id="paint0_linear_1110_40" x1="0" y1="45" x2="290" y2="45" gradientUnits="userSpaceOnUse">
<stop stop-color="#3F5FF6"/>
<stop offset="0.620799" stop-color="#8DC4FA"/>
<stop offset="1" stop-color="#E9BBC4"/>
</linearGradient>
<linearGradient id="paint1_linear_1110_40" x1="0" y1="45" x2="290" y2="45" gradientUnits="userSpaceOnUse">
<stop stop-color="#3F5FF6"/>
<stop offset="0.620799" stop-color="#8DC4FA"/>
<stop offset="1" stop-color="#E9BBC4"/>
</linearGradient>
<linearGradient id="paint2_linear_1110_40" x1="0" y1="45" x2="290" y2="45" gradientUnits="userSpaceOnUse">
<stop stop-color="#3F5FF6"/>
<stop offset="0.620799" stop-color="#8DC4FA"/>
<stop offset="1" stop-color="#E9BBC4"/>
</linearGradient>
<linearGradient id="paint3_linear_1110_40" x1="0" y1="45" x2="290" y2="45" gradientUnits="userSpaceOnUse">
<stop stop-color="#3F5FF6"/>
<stop offset="0.620799" stop-color="#8DC4FA"/>
<stop offset="1" stop-color="#E9BBC4"/>
</linearGradient>
<linearGradient id="paint4_linear_1110_40" x1="0" y1="45" x2="290" y2="45" gradientUnits="userSpaceOnUse">
<stop stop-color="#3F5FF6"/>
<stop offset="0.620799" stop-color="#8DC4FA"/>
<stop offset="1" stop-color="#E9BBC4"/>
</linearGradient>
<linearGradient id="paint5_linear_1110_40" x1="0" y1="45" x2="290" y2="45" gradientUnits="userSpaceOnUse">
<stop stop-color="#3F5FF6"/>
<stop offset="0.620799" stop-color="#8DC4FA"/>
<stop offset="1" stop-color="#E9BBC4"/>
</linearGradient>
</defs>
</svg>
