<svg width="340" height="153" viewBox="0 0 340 153" fill="none" xmlns="http://www.w3.org/2000/svg">
<path d="M191.973 105.879C191.973 106.68 192.642 107.319 193.443 107.28L205.313 106.713C206.061 106.677 206.649 106.06 206.649 105.312V67.801C206.649 67.0041 205.986 66.3671 205.19 66.399L193.32 66.8738C192.567 66.9039 191.973 67.5227 191.973 68.2758V105.879Z" fill="black"/>
<path d="M193.818 59.3798C195.271 60.8335 197.088 61.5603 199.269 61.5603C201.561 61.5603 203.406 60.8335 204.804 59.3798C206.258 57.8703 206.985 55.9973 206.985 53.7609C206.985 51.5804 206.258 49.7354 204.804 48.2258C203.406 46.7162 201.561 45.9614 199.269 45.9614C197.088 45.9614 195.271 46.7162 193.818 48.2258C192.364 49.7354 191.637 51.5804 191.637 53.7609C191.637 55.9973 192.364 57.8703 193.818 59.3798Z" fill="black"/>
<path fill-rule="evenodd" clip-rule="evenodd" d="M156.658 83.2814V103.67C156.658 104.345 156.177 104.925 155.513 105.049L143.307 107.33C142.444 107.492 141.646 106.829 141.646 105.951V49.2935C141.646 48.5185 142.275 47.8903 143.05 47.8903H166.974C170.999 47.8903 174.522 48.6451 177.541 50.1547C180.616 51.6642 183.02 53.7329 184.753 56.3607C186.486 58.9885 187.353 62.0635 187.353 65.5858C187.353 69.1082 186.458 72.2112 184.669 74.8949C182.936 77.5226 180.504 79.5913 177.373 81.1009C176.019 81.7297 174.565 82.2226 173.011 82.5794L188.932 104.249C189.707 105.304 188.743 106.752 187.471 106.444L174.311 103.253C174.012 103.18 173.746 103.012 173.552 102.773L157.732 83.2814H156.658ZM156.658 72.5466H164.877C167.337 72.5466 169.21 71.9596 170.496 70.7855C171.838 69.5555 172.509 67.9061 172.509 65.8374C172.509 63.8247 171.838 62.2033 170.496 60.9733C169.21 59.6873 167.337 59.0444 164.877 59.0444H156.658V72.5466Z" fill="black"/>
<path d="M226.558 108.525C224.042 108.525 221.554 108.189 219.094 107.518C216.69 106.847 214.425 105.953 212.301 104.835C210.676 103.912 209.241 102.887 207.995 101.758C207.433 101.248 207.44 100.378 207.971 99.8356L213.972 93.7081C214.526 93.1423 215.434 93.1531 216.038 93.6651C217.139 94.598 218.381 95.358 219.765 95.945C221.666 96.7277 223.678 97.1191 225.803 97.1191C227.033 97.1191 227.956 96.9514 228.571 96.6159C229.242 96.2804 229.577 95.8052 229.577 95.1902C229.577 94.2956 229.102 93.6247 228.151 93.1774C227.257 92.6742 226.055 92.2549 224.545 91.9195C223.091 91.5281 221.554 91.0808 219.933 90.5776C218.311 90.0185 216.746 89.2917 215.236 88.3971C213.726 87.5026 212.496 86.2446 211.546 84.6232C210.651 83.0018 210.204 80.9331 210.204 78.4172C210.204 75.7894 210.903 73.4971 212.301 71.5403C213.754 69.5275 215.767 67.962 218.339 66.8438C220.911 65.6697 223.93 65.0827 227.396 65.0827C230.919 65.0827 234.273 65.6977 237.46 66.9277C240.171 67.9263 242.893 69.8607 244.851 71.8959C245.398 72.4653 245.291 73.3715 244.664 73.8532L237.723 79.1927C237.139 79.6417 236.318 79.5506 235.771 79.0581C234.818 78.2002 233.917 77.7534 232.68 77.3269C231.059 76.7119 229.577 76.4044 228.235 76.4044C226.949 76.4044 226.027 76.6001 225.468 76.9915C224.909 77.3269 224.629 77.8022 224.629 78.4172C224.629 79.144 225.076 79.7311 225.971 80.1784C226.921 80.6256 228.123 81.045 229.577 81.4363C231.087 81.7718 232.624 82.2191 234.19 82.7782C235.811 83.3373 237.348 84.12 238.802 85.1264C240.312 86.0769 241.514 87.3628 242.408 88.9842C243.359 90.6056 243.834 92.7022 243.834 95.2741C243.834 99.3555 242.269 102.598 239.138 105.002C236.007 107.351 231.813 108.525 226.558 108.525Z" fill="black"/>
<path fill-rule="evenodd" clip-rule="evenodd" d="M254.795 105.589C258.318 107.379 262.371 108.273 266.956 108.273C270.59 108.273 273.833 107.686 276.684 106.512C279.172 105.507 281.332 104.094 283.164 102.271C283.689 101.749 283.658 100.905 283.135 100.382L277.49 94.7381C276.917 94.1653 275.985 94.2026 275.385 94.7468C274.425 95.6174 273.376 96.2964 272.239 96.7836C270.73 97.4545 268.969 97.79 266.956 97.79C264.831 97.79 263.042 97.3707 261.589 96.532C260.135 95.6934 259.017 94.4634 258.234 92.842C258.042 92.4313 257.874 92.0006 257.729 91.5498L285.406 91.4213C286.048 91.4183 286.611 90.9817 286.737 90.3528C286.875 89.6663 286.962 89.0423 287 88.481C287.111 87.5864 287.167 86.7198 287.167 85.8812C287.167 81.9116 286.245 78.3892 284.4 75.3142C282.611 72.1832 280.095 69.7511 276.852 68.0179C273.665 66.2288 270.003 65.3342 265.866 65.3342C261.616 65.3342 257.787 66.2847 254.376 68.1857C251.022 70.0307 248.366 72.5746 246.409 75.8174C244.452 79.0042 243.474 82.6663 243.474 86.8037C243.474 90.9969 244.48 94.715 246.493 97.9577C248.506 101.201 251.273 103.744 254.795 105.589ZM257.698 82.1302C257.829 81.7127 257.979 81.3137 258.15 80.9331C258.877 79.3117 259.911 78.0538 261.253 77.1592C262.595 76.2647 264.188 75.8174 266.033 75.8174C267.822 75.8174 269.304 76.2087 270.478 76.9915C271.652 77.7742 272.547 78.9204 273.162 80.4299C273.364 80.9073 273.536 81.43 273.677 81.9978L257.698 82.1302Z" fill="black"/>
<path d="M269.862 59.5098V48.6856H272.614V59.5098H269.862ZM266.525 50.9765V48.6087H275.95V50.9765H266.525ZM276.433 59.5098V48.6087H278.417L282.599 54.9279H281.661L285.828 48.6087H287.811V59.5098H285.09V53.1598L285.52 53.2828L283.014 57.0497H281.23L278.74 53.2828L279.17 53.1598V59.5098H276.433Z" fill="black"/>
<path d="M69.9761 42.8881C69.9761 42.0558 70.5958 41.3539 71.4216 41.2506L81.3227 40.013C82.3076 39.8899 83.1775 40.6578 83.1775 41.6504V74.2159C83.1775 75.2085 82.3076 75.9765 81.3227 75.8534L71.4216 74.6157C70.5958 74.5125 69.9761 73.8105 69.9761 72.9783V42.8881Z" fill="black"/>
<path d="M50.1738 47.0135C50.1738 46.1813 50.7935 45.4793 51.6193 45.3761L61.5204 44.1385C62.5054 44.0153 63.3753 44.7833 63.3753 45.7759V71.7406C63.3753 72.7332 62.5054 73.5012 61.5204 73.3781L51.6193 72.1404C50.7935 72.0372 50.1738 71.3352 50.1738 70.503V47.0135Z" fill="black"/>
<path d="M101.73 42.769C102.464 42.9527 102.98 43.6127 102.98 44.3699V58.1266C102.98 58.9588 102.36 59.6608 101.534 59.764L91.6331 61.0017C90.6482 61.1248 89.7783 60.3568 89.7783 59.3642V41.8946C89.7783 40.8211 90.7872 40.0334 91.8287 40.2937L101.73 42.769Z" fill="black"/>
<path d="M121.132 48.4954C121.132 47.7382 120.616 47.0781 119.882 46.8945L109.981 44.4192C108.939 44.1588 107.93 44.9465 107.93 46.0201V58.5391C107.93 59.5317 108.8 60.2997 109.785 60.1766L119.686 58.9389C120.512 58.8357 121.132 58.1337 121.132 57.3015V48.4954Z" fill="black"/>
<path d="M121.132 65.359L88.9532 66.1841C89.4188 72.2366 94.4658 76.9103 100.536 76.9103H107.93V83.9332L50.1738 78.5605V112.963L121.132 108.013V65.359Z" fill="black"/>
</svg>
